<svg width="750" height="750" viewBox="0 0 750 750" fill="none" xmlns="http://www.w3.org/2000/svg">
<rect width="750" height="750" rx="125" fill="#10131B"/>
<path d="M310.71 310H289.475C287.642 310 285.955 311.004 285.081 312.615L201.508 466.615C199.7 469.947 202.112 474 205.902 474H229.484C231.339 474 233.042 472.973 233.907 471.333L315.132 317.333C316.889 314.003 314.474 310 310.71 310Z" fill="#FCFCFE"/>
<path d="M447.645 262.858L342.885 483.858C341.313 487.176 343.732 491 347.403 491H369.837C371.769 491 373.527 489.887 374.355 488.142L479.115 267.142C480.687 263.824 478.268 260 474.597 260H452.163C450.231 260 448.473 261.113 447.645 262.858Z" fill="#FDFBFE"/>
<path d="M500 372.5V392C500 394.761 502.239 397 505 397H628.5C631.261 397 633.5 394.761 633.5 392V372.5C633.5 369.739 631.261 367.5 628.5 367.5H505C502.239 367.5 500 369.739 500 372.5Z" fill="#FB3928"/>
</svg>
